# xmcd
#
# Track frame offsets: 
#        150
#        16582
#        30900
#        45664
#        55502
#        64280
#        73812
#        85782
#        99402
#        110125
#        119532
#        130447
#        139745
#
# Disc length: 2091 seconds
#
# Revision: 7
# Processed by: cddbd v1.5.2PL0 Copyright (c) Steve Scherf et al.
# Submitted via: ExactAudioCopy v1.0b3
#
DISCID=af08290d
DTITLE=Сектор Газа - Сектор Газа (GL 10210)
DYEAR=1998
DGENRE=Rock
TTITLE0=Сектор Газа
TTITLE1=Ангел секса
TTITLE2=Авто мат
TTITLE3=Я мочился в ночь
TTITLE4=Эстрадная песня
TTITLE5=Аборт или роды
TTITLE6=Самогонщики
TTITLE7=Спокойной ночи, малыши
TTITLE8=Я - мразь
TTITLE9=Сумасшедший труп
TTITLE10=Подкуп
TTITLE11=Дураки
TTITLE12=Война
EXTD=Original recorded in 1989
EXTT0=
EXTT1=
EXTT2=
EXTT3=
EXTT4=
EXTT5=
EXTT6=
EXTT7=
EXTT8=
EXTT9=
EXTT10=
EXTT11=
EXTT12=
PLAYORDER=
